<svg xmlns="http://www.w3.org/2000/svg" xmlns:xlink="http://www.w3.org/1999/xlink" width="1080" zoomAndPan="magnify" viewBox="0 0 810 809.999993" height="1080" preserveAspectRatio="xMidYMid meet" version="1.0"><defs><clipPath id="f930991d1a"><path d="M 34 92.609375 L 151 92.609375 L 151 717.359375 L 34 717.359375 Z M 34 92.609375 " clip-rule="nonzero"/></clipPath><clipPath id="e8204a66af"><path d="M 165 92.609375 L 224 92.609375 L 224 717.359375 L 165 717.359375 Z M 165 92.609375 " clip-rule="nonzero"/></clipPath><clipPath id="0a51f12382"><path d="M 237 92.609375 L 268 92.609375 L 268 717.359375 L 237 717.359375 Z M 237 92.609375 " clip-rule="nonzero"/></clipPath><clipPath id="39177a9c81"><path d="M 557 92.609375 L 616 92.609375 L 616 717.359375 L 557 717.359375 Z M 557 92.609375 " clip-rule="nonzero"/></clipPath><clipPath id="2c8c1ba05a"><path d="M 630 92.609375 L 660 92.609375 L 660 717.359375 L 630 717.359375 Z M 630 92.609375 " clip-rule="nonzero"/></clipPath><clipPath id="27d670dbd7"><path d="M 34 92.609375 L 776 92.609375 L 776 209 L 34 209 Z M 34 92.609375 " clip-rule="nonzero"/></clipPath><clipPath id="869a544720"><path d="M 426 92.609375 L 544 92.609375 L 544 717.359375 L 426 717.359375 Z M 426 92.609375 " clip-rule="nonzero"/></clipPath><clipPath id="c31f73653d"><path d="M 426 601 L 776 601 L 776 717.359375 L 426 717.359375 Z M 426 601 " clip-rule="nonzero"/></clipPath></defs><g clip-path="url(#f930991d1a)"><path fill="#3B82F6" d="M 92.636719 92.609375 C 94.542969 92.609375 96.441406 92.703125 98.335938 92.886719 C 100.230469 93.074219 102.113281 93.351562 103.980469 93.726562 C 105.847656 94.097656 107.695312 94.558594 109.515625 95.109375 C 111.339844 95.664062 113.128906 96.304688 114.890625 97.03125 C 116.648438 97.761719 118.367188 98.574219 120.046875 99.46875 C 121.726562 100.367188 123.359375 101.34375 124.941406 102.402344 C 126.523438 103.460938 128.050781 104.59375 129.523438 105.800781 C 130.996094 107.007812 132.40625 108.285156 133.75 109.628906 C 135.097656 110.976562 136.375 112.382812 137.582031 113.855469 C 138.792969 115.328125 139.925781 116.855469 140.984375 118.4375 C 142.039062 120.019531 143.019531 121.648438 143.914062 123.328125 C 144.8125 125.007812 145.625 126.726562 146.355469 128.484375 C 147.085938 130.242188 147.726562 132.03125 148.277344 133.855469 C 148.832031 135.675781 149.292969 137.519531 149.664062 139.386719 C 150.035156 141.253906 150.316406 143.132812 150.5 145.027344 C 150.6875 146.921875 150.78125 148.820312 150.78125 150.722656 L 150.78125 659.242188 C 150.78125 661.144531 150.6875 663.042969 150.5 664.9375 C 150.316406 666.832031 150.035156 668.714844 149.664062 670.578125 C 149.292969 672.445312 148.832031 674.289062 148.277344 676.113281 C 147.726562 677.933594 147.085938 679.722656 146.355469 681.480469 C 145.625 683.242188 144.8125 684.960938 143.914062 686.636719 C 143.019531 688.316406 142.039062 689.945312 140.984375 691.53125 C 139.925781 693.113281 138.792969 694.640625 137.582031 696.109375 C 136.375 697.582031 135.097656 698.992188 133.75 700.335938 C 132.40625 701.683594 130.996094 702.957031 129.523438 704.167969 C 128.050781 705.375 126.523438 706.507812 124.941406 707.5625 C 123.359375 708.621094 121.726562 709.597656 120.046875 710.496094 C 118.367188 711.394531 116.648438 712.207031 114.890625 712.933594 C 113.128906 713.664062 111.339844 714.304688 109.515625 714.855469 C 107.695312 715.40625 105.847656 715.871094 103.980469 716.242188 C 102.113281 716.613281 100.230469 716.890625 98.335938 717.078125 C 96.441406 717.265625 94.542969 717.359375 92.636719 717.359375 C 90.734375 717.359375 88.835938 717.265625 86.9375 717.078125 C 85.042969 716.890625 83.164062 716.613281 81.296875 716.242188 C 79.425781 715.871094 77.582031 715.40625 75.761719 714.855469 C 73.9375 714.304688 72.148438 713.664062 70.386719 712.933594 C 68.628906 712.207031 66.910156 711.394531 65.230469 710.496094 C 63.550781 709.597656 61.917969 708.621094 60.335938 707.5625 C 58.753906 706.507812 57.222656 705.375 55.753906 704.167969 C 54.28125 702.957031 52.871094 701.683594 51.523438 700.335938 C 50.179688 698.992188 48.902344 697.582031 47.691406 696.109375 C 46.484375 694.640625 45.351562 693.113281 44.292969 691.53125 C 43.234375 689.945312 42.257812 688.316406 41.359375 686.636719 C 40.460938 684.960938 39.648438 683.242188 38.921875 681.480469 C 38.191406 679.722656 37.550781 677.933594 37 676.113281 C 36.445312 674.289062 35.984375 672.445312 35.613281 670.578125 C 35.242188 668.714844 34.960938 666.832031 34.773438 664.9375 C 34.589844 663.042969 34.496094 661.144531 34.496094 659.242188 L 34.496094 150.722656 C 34.496094 148.820312 34.589844 146.921875 34.773438 145.027344 C 34.960938 143.132812 35.242188 141.253906 35.613281 139.386719 C 35.984375 137.519531 36.445312 135.675781 37 133.855469 C 37.550781 132.03125 38.191406 130.242188 38.921875 128.484375 C 39.648438 126.726562 40.460938 125.007812 41.359375 123.328125 C 42.257812 121.648438 43.234375 120.019531 44.292969 118.4375 C 45.351562 116.855469 46.484375 115.328125 47.691406 113.855469 C 48.902344 112.382812 50.179688 110.976562 51.523438 109.628906 C 52.871094 108.285156 54.28125 107.007812 55.753906 105.800781 C 57.222656 104.59375 58.753906 103.460938 60.335938 102.402344 C 61.917969 101.34375 63.550781 100.367188 65.230469 99.46875 C 66.910156 98.574219 68.628906 97.761719 70.386719 97.03125 C 72.148438 96.304688 73.9375 95.664062 75.761719 95.109375 C 77.582031 94.558594 79.425781 94.097656 81.296875 93.726562 C 83.164062 93.351562 85.042969 93.074219 86.9375 92.886719 C 88.835938 92.703125 90.734375 92.609375 92.636719 92.609375 Z M 92.636719 92.609375 " fill-opacity="1" fill-rule="nonzero"/></g><g clip-path="url(#e8204a66af)"><path fill="#3B82F6" d="M 194.390625 92.609375 C 193.4375 92.609375 192.488281 92.65625 191.539062 92.75 C 190.59375 92.839844 189.652344 92.980469 188.71875 93.167969 C 187.785156 93.351562 186.859375 93.582031 185.949219 93.859375 C 185.039062 94.136719 184.144531 94.457031 183.265625 94.820312 C 182.382812 95.183594 181.523438 95.589844 180.683594 96.039062 C 179.84375 96.488281 179.027344 96.976562 178.238281 97.503906 C 177.445312 98.035156 176.683594 98.601562 175.945312 99.203125 C 175.210938 99.808594 174.503906 100.445312 173.832031 101.117188 C 173.160156 101.792969 172.519531 102.496094 171.917969 103.230469 C 171.3125 103.96875 170.746094 104.730469 170.214844 105.523438 C 169.6875 106.3125 169.199219 107.128906 168.75 107.96875 C 168.300781 108.808594 167.894531 109.667969 167.53125 110.546875 C 167.164062 111.425781 166.84375 112.320312 166.570312 113.230469 C 166.292969 114.140625 166.0625 115.0625 165.875 115.996094 C 165.691406 116.929688 165.550781 117.871094 165.457031 118.816406 C 165.363281 119.765625 165.316406 120.714844 165.316406 121.667969 L 165.316406 688.300781 C 165.316406 689.25 165.363281 690.199219 165.457031 691.148438 C 165.550781 692.09375 165.691406 693.035156 165.875 693.96875 C 166.0625 694.902344 166.292969 695.824219 166.570312 696.734375 C 166.84375 697.644531 167.164062 698.539062 167.53125 699.421875 C 167.894531 700.300781 168.300781 701.160156 168.75 701.996094 C 169.199219 702.835938 169.6875 703.652344 170.214844 704.445312 C 170.746094 705.234375 171.3125 706 171.917969 706.734375 C 172.519531 707.46875 173.160156 708.175781 173.832031 708.847656 C 174.503906 709.519531 175.210938 710.160156 175.945312 710.761719 C 176.683594 711.367188 177.445312 711.933594 178.238281 712.460938 C 179.027344 712.988281 179.84375 713.476562 180.683594 713.925781 C 181.523438 714.375 182.382812 714.78125 183.265625 715.144531 C 184.144531 715.511719 185.039062 715.832031 185.949219 716.105469 C 186.859375 716.382812 187.785156 716.613281 188.71875 716.800781 C 189.652344 716.984375 190.59375 717.125 191.539062 717.21875 C 192.488281 717.3125 193.4375 717.359375 194.390625 717.359375 C 195.339844 717.359375 196.289062 717.3125 197.238281 717.21875 C 198.1875 717.125 199.125 716.984375 200.058594 716.800781 C 200.996094 716.613281 201.917969 716.382812 202.828125 716.105469 C 203.738281 715.832031 204.632812 715.511719 205.515625 715.144531 C 206.394531 714.78125 207.253906 714.375 208.09375 713.925781 C 208.933594 713.476562 209.75 712.988281 210.539062 712.460938 C 211.332031 711.933594 212.097656 711.367188 212.832031 710.761719 C 213.566406 710.160156 214.273438 709.519531 214.945312 708.847656 C 215.617188 708.175781 216.257812 707.46875 216.863281 706.734375 C 217.464844 706 218.03125 705.234375 218.5625 704.445312 C 219.089844 703.652344 219.578125 702.835938 220.027344 701.996094 C 220.476562 701.160156 220.882812 700.300781 221.246094 699.421875 C 221.613281 698.539062 221.933594 697.644531 222.207031 696.734375 C 222.484375 695.824219 222.714844 694.902344 222.902344 693.96875 C 223.085938 693.035156 223.226562 692.09375 223.320312 691.148438 C 223.414062 690.199219 223.460938 689.25 223.460938 688.300781 L 223.460938 121.667969 C 223.460938 120.714844 223.414062 119.765625 223.320312 118.816406 C 223.226562 117.871094 223.085938 116.929688 222.902344 115.996094 C 222.714844 115.0625 222.484375 114.140625 222.207031 113.230469 C 221.933594 112.320312 221.613281 111.425781 221.246094 110.546875 C 220.882812 109.667969 220.476562 108.808594 220.027344 107.96875 C 219.578125 107.128906 219.089844 106.3125 218.5625 105.523438 C 218.03125 104.730469 217.464844 103.96875 216.863281 103.230469 C 216.257812 102.496094 215.617188 101.792969 214.945312 101.117188 C 214.273438 100.445312 213.566406 99.808594 212.832031 99.203125 C 212.097656 98.601562 211.332031 98.035156 210.539062 97.503906 C 209.75 96.976562 208.933594 96.488281 208.09375 96.039062 C 207.253906 95.589844 206.394531 95.183594 205.515625 94.820312 C 204.632812 94.457031 203.738281 94.136719 202.828125 93.859375 C 201.917969 93.582031 200.996094 93.351562 200.058594 93.167969 C 199.125 92.980469 198.1875 92.839844 197.238281 92.75 C 196.289062 92.65625 195.339844 92.609375 194.390625 92.609375 Z M 194.390625 92.609375 " fill-opacity="0.5" fill-rule="nonzero"/></g><g clip-path="url(#0a51f12382)"><path fill="#3B82F6" d="M 252.53125 92.609375 C 253.488281 92.609375 254.433594 92.703125 255.367188 92.886719 C 256.304688 93.074219 257.214844 93.347656 258.09375 93.714844 C 258.976562 94.078125 259.8125 94.527344 260.609375 95.058594 C 261.402344 95.585938 262.136719 96.1875 262.808594 96.863281 C 263.484375 97.539062 264.089844 98.273438 264.617188 99.066406 C 265.148438 99.859375 265.597656 100.695312 265.960938 101.578125 C 266.328125 102.457031 266.601562 103.367188 266.789062 104.304688 C 266.976562 105.238281 267.066406 106.183594 267.066406 107.136719 L 267.066406 702.828125 C 267.066406 703.78125 266.976562 704.726562 266.789062 705.664062 C 266.601562 706.597656 266.328125 707.507812 265.960938 708.390625 C 265.597656 709.269531 265.148438 710.109375 264.617188 710.902344 C 264.089844 711.695312 263.484375 712.429688 262.808594 713.101562 C 262.136719 713.777344 261.402344 714.378906 260.609375 714.910156 C 259.8125 715.441406 258.976562 715.886719 258.09375 716.253906 C 257.214844 716.617188 256.304688 716.894531 255.367188 717.078125 C 254.433594 717.265625 253.488281 717.359375 252.53125 717.359375 C 251.578125 717.359375 250.632812 717.265625 249.695312 717.078125 C 248.761719 716.894531 247.851562 716.617188 246.96875 716.253906 C 246.085938 715.886719 245.25 715.441406 244.457031 714.910156 C 243.664062 714.378906 242.929688 713.777344 242.253906 713.101562 C 241.578125 712.429688 240.976562 711.695312 240.445312 710.902344 C 239.914062 710.109375 239.46875 709.269531 239.101562 708.390625 C 238.738281 707.507812 238.460938 706.597656 238.277344 705.664062 C 238.089844 704.726562 237.996094 703.78125 237.996094 702.828125 L 237.996094 107.136719 C 237.996094 106.183594 238.089844 105.238281 238.277344 104.304688 C 238.460938 103.367188 238.738281 102.457031 239.101562 101.578125 C 239.46875 100.695312 239.914062 99.859375 240.445312 99.066406 C 240.976562 98.273438 241.578125 97.539062 242.253906 96.863281 C 242.929688 96.1875 243.664062 95.585938 244.457031 95.058594 C 245.25 94.527344 246.085938 94.078125 246.96875 93.714844 C 247.851562 93.347656 248.761719 93.074219 249.695312 92.886719 C 250.632812 92.703125 251.578125 92.609375 252.53125 92.609375 Z M 252.53125 92.609375 " fill-opacity="0.2" fill-rule="nonzero"/></g><g clip-path="url(#39177a9c81)"><path fill="#3B82F6" d="M 586.855469 92.609375 C 585.902344 92.609375 584.953125 92.65625 584.007812 92.75 C 583.058594 92.839844 582.117188 92.980469 581.183594 93.167969 C 580.25 93.351562 579.328125 93.582031 578.417969 93.859375 C 577.503906 94.136719 576.609375 94.457031 575.730469 94.820312 C 574.851562 95.183594 573.992188 95.589844 573.152344 96.039062 C 572.3125 96.488281 571.496094 96.976562 570.703125 97.503906 C 569.914062 98.035156 569.148438 98.601562 568.414062 99.203125 C 567.675781 99.808594 566.972656 100.445312 566.300781 101.117188 C 565.625 101.792969 564.988281 102.496094 564.382812 103.230469 C 563.777344 103.96875 563.210938 104.730469 562.683594 105.523438 C 562.15625 106.3125 561.664062 107.128906 561.21875 107.96875 C 560.769531 108.808594 560.363281 109.667969 559.996094 110.546875 C 559.632812 111.425781 559.3125 112.320312 559.035156 113.230469 C 558.757812 114.140625 558.527344 115.0625 558.34375 115.996094 C 558.15625 116.929688 558.015625 117.871094 557.925781 118.816406 C 557.832031 119.765625 557.785156 120.714844 557.785156 121.667969 L 557.785156 688.300781 C 557.785156 689.25 557.832031 690.199219 557.925781 691.148438 C 558.015625 692.09375 558.15625 693.035156 558.34375 693.96875 C 558.527344 694.902344 558.757812 695.824219 559.035156 696.734375 C 559.3125 697.644531 559.632812 698.539062 559.996094 699.421875 C 560.363281 700.300781 560.769531 701.160156 561.21875 701.996094 C 561.664062 702.835938 562.15625 703.652344 562.683594 704.445312 C 563.210938 705.234375 563.777344 706 564.382812 706.734375 C 564.988281 707.46875 565.625 708.175781 566.300781 708.847656 C 566.972656 709.519531 567.675781 710.160156 568.414062 710.761719 C 569.148438 711.367188 569.914062 711.933594 570.703125 712.460938 C 571.496094 712.988281 572.3125 713.476562 573.152344 713.925781 C 573.992188 714.375 574.851562 714.78125 575.730469 715.144531 C 576.609375 715.511719 577.503906 715.832031 578.417969 716.105469 C 579.328125 716.382812 580.25 716.613281 581.183594 716.800781 C 582.117188 716.984375 583.058594 717.125 584.007812 717.21875 C 584.953125 717.3125 585.902344 717.359375 586.855469 717.359375 C 587.808594 717.359375 588.757812 717.3125 589.707031 717.21875 C 590.652344 717.125 591.59375 716.984375 592.527344 716.800781 C 593.460938 716.613281 594.382812 716.382812 595.292969 716.105469 C 596.207031 715.832031 597.101562 715.511719 597.980469 715.144531 C 598.859375 714.78125 599.71875 714.375 600.558594 713.925781 C 601.398438 713.476562 602.214844 712.988281 603.007812 712.460938 C 603.796875 711.933594 604.5625 711.367188 605.296875 710.761719 C 606.035156 710.160156 606.738281 709.519531 607.414062 708.847656 C 608.085938 708.175781 608.722656 707.46875 609.328125 706.734375 C 609.933594 706 610.5 705.234375 611.027344 704.445312 C 611.558594 703.652344 612.046875 702.835938 612.496094 701.996094 C 612.945312 701.160156 613.351562 700.300781 613.714844 699.421875 C 614.078125 698.539062 614.398438 697.644531 614.675781 696.734375 C 614.953125 695.824219 615.183594 694.902344 615.367188 693.96875 C 615.554688 693.035156 615.695312 692.09375 615.789062 691.148438 C 615.878906 690.199219 615.925781 689.25 615.925781 688.300781 L 615.925781 121.667969 C 615.925781 120.714844 615.878906 119.765625 615.789062 118.816406 C 615.695312 117.871094 615.554688 116.929688 615.367188 115.996094 C 615.183594 115.0625 614.953125 114.140625 614.675781 113.230469 C 614.398438 112.320312 614.078125 111.425781 613.714844 110.546875 C 613.351562 109.667969 612.945312 108.808594 612.496094 107.96875 C 612.046875 107.128906 611.558594 106.3125 611.027344 105.523438 C 610.5 104.730469 609.933594 103.96875 609.328125 103.230469 C 608.722656 102.496094 608.085938 101.792969 607.414062 101.117188 C 606.738281 100.445312 606.035156 99.808594 605.296875 99.203125 C 604.5625 98.601562 603.796875 98.035156 603.007812 97.503906 C 602.214844 96.976562 601.398438 96.488281 600.558594 96.039062 C 599.71875 95.589844 598.859375 95.183594 597.980469 94.820312 C 597.101562 94.457031 596.207031 94.136719 595.292969 93.859375 C 594.382812 93.582031 593.460938 93.351562 592.527344 93.167969 C 591.59375 92.980469 590.652344 92.839844 589.707031 92.75 C 588.757812 92.65625 587.808594 92.609375 586.855469 92.609375 Z M 586.855469 92.609375 " fill-opacity="0.5" fill-rule="nonzero"/></g><g clip-path="url(#2c8c1ba05a)"><path fill="#3B82F6" d="M 645 92.609375 C 645.953125 92.609375 646.898438 92.703125 647.835938 92.886719 C 648.769531 93.074219 649.679688 93.347656 650.5625 93.714844 C 651.441406 94.078125 652.28125 94.527344 653.074219 95.058594 C 653.867188 95.585938 654.601562 96.1875 655.277344 96.863281 C 655.953125 97.539062 656.554688 98.273438 657.085938 99.066406 C 657.613281 99.859375 658.0625 100.695312 658.429688 101.578125 C 658.792969 102.457031 659.070312 103.367188 659.253906 104.304688 C 659.441406 105.238281 659.535156 106.183594 659.535156 107.136719 L 659.535156 702.828125 C 659.535156 703.78125 659.441406 704.726562 659.253906 705.664062 C 659.070312 706.597656 658.792969 707.507812 658.429688 708.390625 C 658.0625 709.269531 657.617188 710.109375 657.085938 710.902344 C 656.554688 711.695312 655.953125 712.429688 655.277344 713.101562 C 654.601562 713.777344 653.867188 714.378906 653.074219 714.910156 C 652.28125 715.441406 651.441406 715.886719 650.5625 716.253906 C 649.679688 716.617188 648.769531 716.894531 647.835938 717.078125 C 646.898438 717.265625 645.953125 717.359375 645 717.359375 C 644.042969 717.359375 643.097656 717.265625 642.164062 717.078125 C 641.226562 716.894531 640.316406 716.617188 639.4375 716.253906 C 638.554688 715.886719 637.71875 715.441406 636.921875 714.910156 C 636.128906 714.378906 635.394531 713.777344 634.71875 713.101562 C 634.046875 712.429688 633.441406 711.695312 632.914062 710.902344 C 632.382812 710.109375 631.933594 709.269531 631.570312 708.390625 C 631.203125 707.507812 630.929688 706.597656 630.742188 705.664062 C 630.554688 704.726562 630.464844 703.78125 630.464844 702.828125 L 630.464844 107.136719 C 630.464844 106.183594 630.554688 105.238281 630.742188 104.304688 C 630.929688 103.367188 631.203125 102.457031 631.570312 101.578125 C 631.933594 100.695312 632.382812 99.859375 632.914062 99.066406 C 633.441406 98.273438 634.046875 97.539062 634.71875 96.863281 C 635.394531 96.1875 636.128906 95.585938 636.921875 95.058594 C 637.71875 94.527344 638.554688 94.078125 639.4375 93.714844 C 640.316406 93.347656 641.226562 93.074219 642.164062 92.886719 C 643.097656 92.703125 644.042969 92.609375 645 92.609375 Z M 645 92.609375 " fill-opacity="0.2" fill-rule="nonzero"/></g><g clip-path="url(#27d670dbd7)"><path fill="#3B82F6" d="M 775.820312 150.722656 C 775.820312 152.628906 775.726562 154.527344 775.542969 156.421875 C 775.355469 158.316406 775.074219 160.195312 774.703125 162.0625 C 774.332031 163.929688 773.871094 165.773438 773.316406 167.59375 C 772.765625 169.417969 772.125 171.207031 771.394531 172.964844 C 770.667969 174.722656 769.851562 176.441406 768.957031 178.121094 C 768.058594 179.800781 767.082031 181.429688 766.023438 183.011719 C 764.964844 184.59375 763.832031 186.121094 762.625 187.59375 C 761.414062 189.0625 760.136719 190.472656 758.792969 191.820312 C 757.445312 193.164062 756.035156 194.441406 754.5625 195.648438 C 753.089844 196.855469 751.5625 197.988281 749.980469 199.046875 C 748.398438 200.105469 746.765625 201.082031 745.085938 201.976562 C 743.40625 202.875 741.6875 203.6875 739.929688 204.417969 C 738.167969 205.144531 736.378906 205.785156 734.554688 206.339844 C 732.734375 206.890625 730.890625 207.351562 729.019531 207.722656 C 727.152344 208.09375 725.273438 208.375 723.378906 208.5625 C 721.480469 208.746094 719.582031 208.839844 717.679688 208.839844 L 92.636719 208.839844 C 90.734375 208.839844 88.835938 208.746094 86.9375 208.5625 C 85.042969 208.375 83.164062 208.09375 81.296875 207.722656 C 79.425781 207.351562 77.582031 206.890625 75.761719 206.339844 C 73.9375 205.785156 72.148438 205.144531 70.386719 204.417969 C 68.628906 203.6875 66.910156 202.875 65.230469 201.976562 C 63.550781 201.082031 61.917969 200.105469 60.335938 199.046875 C 58.753906 197.988281 57.222656 196.855469 55.753906 195.648438 C 54.28125 194.441406 52.871094 193.164062 51.523438 191.820312 C 50.179688 190.472656 48.902344 189.0625 47.691406 187.59375 C 46.484375 186.121094 45.351562 184.59375 44.292969 183.011719 C 43.234375 181.429688 42.257812 179.800781 41.359375 178.121094 C 40.460938 176.441406 39.648438 174.722656 38.921875 172.964844 C 38.191406 171.207031 37.550781 169.417969 37 167.59375 C 36.445312 165.773438 35.984375 163.929688 35.613281 162.0625 C 35.242188 160.195312 34.960938 158.316406 34.773438 156.421875 C 34.589844 154.527344 34.496094 152.628906 34.496094 150.722656 C 34.496094 148.820312 34.589844 146.921875 34.773438 145.027344 C 34.960938 143.132812 35.242188 141.253906 35.613281 139.386719 C 35.984375 137.519531 36.445312 135.675781 37 133.855469 C 37.550781 132.03125 38.191406 130.242188 38.921875 128.484375 C 39.648438 126.726562 40.460938 125.007812 41.359375 123.328125 C 42.257812 121.648438 43.234375 120.019531 44.292969 118.4375 C 45.351562 116.855469 46.484375 115.328125 47.691406 113.855469 C 48.902344 112.382812 50.179688 110.976562 51.523438 109.628906 C 52.871094 108.285156 54.28125 107.007812 55.753906 105.800781 C 57.222656 104.59375 58.753906 103.460938 60.335938 102.402344 C 61.917969 101.34375 63.550781 100.367188 65.230469 99.46875 C 66.910156 98.574219 68.628906 97.761719 70.386719 97.03125 C 72.148438 96.304688 73.9375 95.664062 75.761719 95.109375 C 77.582031 94.558594 79.425781 94.097656 81.296875 93.726562 C 83.164062 93.351562 85.042969 93.074219 86.9375 92.886719 C 88.835938 92.703125 90.734375 92.609375 92.636719 92.609375 L 717.679688 92.609375 C 719.582031 92.609375 721.480469 92.703125 723.378906 92.886719 C 725.273438 93.074219 727.152344 93.351562 729.019531 93.726562 C 730.890625 94.097656 732.734375 94.558594 734.554688 95.109375 C 736.378906 95.664062 738.167969 96.304688 739.929688 97.03125 C 741.6875 97.761719 743.40625 98.574219 745.085938 99.46875 C 746.765625 100.367188 748.398438 101.34375 749.980469 102.402344 C 751.5625 103.460938 753.089844 104.59375 754.5625 105.800781 C 756.035156 107.007812 757.445312 108.285156 758.792969 109.628906 C 760.136719 110.976562 761.414062 112.382812 762.625 113.855469 C 763.832031 115.328125 764.964844 116.855469 766.023438 118.4375 C 767.082031 120.019531 768.058594 121.648438 768.957031 123.328125 C 769.851562 125.007812 770.667969 126.726562 771.394531 128.484375 C 772.125 130.242188 772.765625 132.03125 773.316406 133.855469 C 773.871094 135.675781 774.332031 137.519531 774.703125 139.386719 C 775.074219 141.253906 775.355469 143.132812 775.542969 145.027344 C 775.726562 146.921875 775.820312 148.820312 775.820312 150.722656 Z M 775.820312 150.722656 " fill-opacity="1" fill-rule="nonzero"/></g><g clip-path="url(#869a544720)"><path fill="#3B82F6" d="M 485.105469 92.609375 C 487.007812 92.609375 488.910156 92.703125 490.804688 92.886719 C 492.699219 93.074219 494.582031 93.351562 496.449219 93.726562 C 498.316406 94.097656 500.160156 94.558594 501.984375 95.109375 C 503.804688 95.664062 505.597656 96.304688 507.355469 97.03125 C 509.113281 97.761719 510.835938 98.574219 512.511719 99.46875 C 514.191406 100.367188 515.824219 101.34375 517.40625 102.402344 C 518.992188 103.460938 520.519531 104.59375 521.992188 105.800781 C 523.460938 107.007812 524.871094 108.285156 526.21875 109.628906 C 527.566406 110.976562 528.84375 112.382812 530.050781 113.855469 C 531.257812 115.328125 532.390625 116.855469 533.449219 118.4375 C 534.507812 120.019531 535.484375 121.648438 536.382812 123.328125 C 537.28125 125.007812 538.09375 126.726562 538.824219 128.484375 C 539.550781 130.242188 540.191406 132.03125 540.746094 133.855469 C 541.296875 135.675781 541.757812 137.519531 542.132812 139.386719 C 542.503906 141.253906 542.78125 143.132812 542.96875 145.027344 C 543.15625 146.921875 543.25 148.820312 543.25 150.722656 L 543.25 659.242188 C 543.25 661.144531 543.15625 663.042969 542.96875 664.9375 C 542.78125 666.832031 542.503906 668.714844 542.132812 670.578125 C 541.757812 672.445312 541.296875 674.289062 540.746094 676.113281 C 540.191406 677.933594 539.550781 679.722656 538.824219 681.480469 C 538.09375 683.242188 537.28125 684.960938 536.382812 686.636719 C 535.484375 688.316406 534.507812 689.945312 533.449219 691.53125 C 532.390625 693.113281 531.257812 694.640625 530.050781 696.109375 C 528.84375 697.582031 527.566406 698.992188 526.21875 700.335938 C 524.871094 701.683594 523.460938 702.957031 521.992188 704.167969 C 520.519531 705.375 518.992188 706.507812 517.40625 707.5625 C 515.824219 708.621094 514.191406 709.597656 512.511719 710.496094 C 510.835938 711.394531 509.113281 712.207031 507.355469 712.933594 C 505.597656 713.664062 503.804688 714.304688 501.984375 714.855469 C 500.160156 715.40625 498.316406 715.871094 496.449219 716.242188 C 494.582031 716.613281 492.699219 716.890625 490.804688 717.078125 C 488.910156 717.265625 487.007812 717.359375 485.105469 717.359375 C 483.199219 717.359375 481.300781 717.265625 479.40625 717.078125 C 477.511719 716.890625 475.628906 716.613281 473.761719 716.242188 C 471.894531 715.871094 470.050781 715.40625 468.226562 714.855469 C 466.40625 714.304688 464.613281 713.664062 462.855469 712.933594 C 461.09375 712.207031 459.375 711.394531 457.695312 710.496094 C 456.015625 709.597656 454.386719 708.621094 452.800781 707.5625 C 451.21875 706.507812 449.691406 705.375 448.21875 704.167969 C 446.746094 702.957031 445.339844 701.683594 443.992188 700.335938 C 442.644531 698.992188 441.367188 697.582031 440.160156 696.109375 C 438.953125 694.640625 437.820312 693.113281 436.761719 691.53125 C 435.703125 689.945312 434.726562 688.316406 433.828125 686.636719 C 432.929688 684.960938 432.117188 683.242188 431.386719 681.480469 C 430.660156 679.722656 430.019531 677.933594 429.464844 676.113281 C 428.914062 674.289062 428.449219 672.445312 428.078125 670.578125 C 427.707031 668.714844 427.429688 666.832031 427.242188 664.9375 C 427.054688 663.042969 426.960938 661.144531 426.960938 659.242188 L 426.960938 150.722656 C 426.960938 148.820312 427.054688 146.921875 427.242188 145.027344 C 427.429688 143.132812 427.707031 141.253906 428.078125 139.386719 C 428.449219 137.519531 428.914062 135.675781 429.464844 133.855469 C 430.019531 132.03125 430.660156 130.242188 431.386719 128.484375 C 432.117188 126.726562 432.929688 125.007812 433.828125 123.328125 C 434.726562 121.648438 435.703125 120.019531 436.761719 118.4375 C 437.820312 116.855469 438.953125 115.328125 440.160156 113.855469 C 441.367188 112.382812 442.644531 110.976562 443.992188 109.628906 C 445.339844 108.285156 446.746094 107.007812 448.21875 105.800781 C 449.691406 104.59375 451.21875 103.460938 452.800781 102.402344 C 454.386719 101.34375 456.015625 100.367188 457.695312 99.46875 C 459.375 98.574219 461.09375 97.761719 462.855469 97.03125 C 464.613281 96.304688 466.40625 95.664062 468.226562 95.109375 C 470.050781 94.558594 471.894531 94.097656 473.761719 93.726562 C 475.628906 93.351562 477.511719 93.074219 479.40625 92.886719 C 481.300781 92.703125 483.199219 92.609375 485.105469 92.609375 Z M 485.105469 92.609375 " fill-opacity="1" fill-rule="nonzero"/></g><path fill="#3B82F6" d="M 775.820312 397.71875 C 775.820312 399.621094 775.726562 401.519531 775.542969 403.414062 C 775.355469 405.308594 775.074219 407.191406 774.703125 409.054688 C 774.332031 410.921875 773.871094 412.765625 773.316406 414.589844 C 772.765625 416.410156 772.125 418.199219 771.394531 419.957031 C 770.667969 421.71875 769.851562 423.4375 768.957031 425.113281 C 768.058594 426.792969 767.082031 428.421875 766.023438 430.007812 C 764.964844 431.589844 763.832031 433.117188 762.625 434.585938 C 761.414062 436.058594 760.136719 437.46875 758.792969 438.8125 C 757.445312 440.160156 756.035156 441.4375 754.5625 442.644531 C 753.089844 443.851562 751.5625 444.984375 749.980469 446.039062 C 748.398438 447.097656 746.765625 448.074219 745.085938 448.972656 C 743.40625 449.871094 741.6875 450.683594 739.929688 451.410156 C 738.167969 452.140625 736.378906 452.78125 734.554688 453.332031 C 732.734375 453.886719 730.890625 454.347656 729.019531 454.71875 C 727.152344 455.089844 725.273438 455.367188 723.375 455.554688 C 721.480469 455.742188 719.582031 455.835938 717.679688 455.835938 L 485.105469 455.835938 C 483.199219 455.835938 481.300781 455.742188 479.40625 455.554688 C 477.511719 455.367188 475.628906 455.089844 473.761719 454.71875 C 471.894531 454.347656 470.050781 453.886719 468.226562 453.332031 C 466.40625 452.78125 464.613281 452.140625 462.855469 451.410156 C 461.09375 450.683594 459.375 449.871094 457.695312 448.972656 C 456.015625 448.074219 454.386719 447.097656 452.800781 446.039062 C 451.21875 444.984375 449.691406 443.851562 448.21875 442.644531 C 446.746094 441.4375 445.339844 440.160156 443.992188 438.8125 C 442.644531 437.46875 441.367188 436.058594 440.160156 434.585938 C 438.953125 433.117188 437.820312 431.589844 436.761719 430.007812 C 435.703125 428.421875 434.726562 426.792969 433.828125 425.113281 C 432.929688 423.4375 432.117188 421.71875 431.386719 419.957031 C 430.660156 418.199219 430.019531 416.410156 429.464844 414.589844 C 428.914062 412.765625 428.449219 410.921875 428.078125 409.054688 C 427.707031 407.191406 427.429688 405.308594 427.242188 403.414062 C 427.054688 401.519531 426.960938 399.621094 426.960938 397.71875 C 426.960938 395.816406 427.054688 393.917969 427.242188 392.023438 C 427.429688 390.128906 427.707031 388.246094 428.078125 386.378906 C 428.449219 384.515625 428.914062 382.667969 429.464844 380.847656 C 430.019531 379.027344 430.660156 377.238281 431.386719 375.476562 C 432.117188 373.71875 432.929688 372 433.828125 370.324219 C 434.726562 368.644531 435.703125 367.011719 436.761719 365.429688 C 437.820312 363.847656 438.953125 362.320312 440.160156 360.851562 C 441.367188 359.378906 442.644531 357.96875 443.992188 356.625 C 445.339844 355.277344 446.746094 354 448.21875 352.792969 C 449.691406 351.585938 451.21875 350.453125 452.800781 349.398438 C 454.386719 348.339844 456.015625 347.363281 457.695312 346.464844 C 459.375 345.566406 461.09375 344.753906 462.855469 344.027344 C 464.613281 343.296875 466.40625 342.65625 468.226562 342.105469 C 470.050781 341.550781 471.894531 341.089844 473.761719 340.71875 C 475.628906 340.347656 477.511719 340.070312 479.40625 339.882812 C 481.300781 339.695312 483.199219 339.601562 485.105469 339.601562 L 717.679688 339.601562 C 719.582031 339.601562 721.480469 339.695312 723.375 339.882812 C 725.273438 340.070312 727.152344 340.347656 729.019531 340.71875 C 730.890625 341.089844 732.734375 341.550781 734.554688 342.105469 C 736.378906 342.65625 738.167969 343.296875 739.929688 344.027344 C 741.6875 344.753906 743.40625 345.566406 745.085938 346.464844 C 746.765625 347.363281 748.398438 348.339844 749.980469 349.398438 C 751.5625 350.453125 753.089844 351.585938 754.5625 352.792969 C 756.035156 354 757.445312 355.277344 758.792969 356.625 C 760.136719 357.96875 761.414062 359.378906 762.625 360.851562 C 763.832031 362.320312 764.964844 363.847656 766.023438 365.429688 C 767.082031 367.011719 768.058594 368.644531 768.957031 370.324219 C 769.851562 372 770.667969 373.71875 771.394531 375.476562 C 772.125 377.238281 772.765625 379.027344 773.316406 380.847656 C 773.871094 382.667969 774.332031 384.515625 774.703125 386.378906 C 775.074219 388.246094 775.355469 390.128906 775.542969 392.023438 C 775.726562 393.917969 775.820312 395.816406 775.820312 397.71875 Z M 775.820312 397.71875 " fill-opacity="1" fill-rule="nonzero"/><g clip-path="url(#c31f73653d)"><path fill="#3B82F6" d="M 775.820312 659.242188 C 775.820312 661.144531 775.726562 663.042969 775.542969 664.9375 C 775.355469 666.832031 775.074219 668.714844 774.703125 670.578125 C 774.332031 672.445312 773.871094 674.289062 773.316406 676.113281 C 772.765625 677.933594 772.125 679.722656 771.394531 681.480469 C 770.667969 683.242188 769.851562 684.960938 768.957031 686.636719 C 768.058594 688.316406 767.082031 689.945312 766.023438 691.53125 C 764.964844 693.113281 763.832031 694.640625 762.625 696.109375 C 761.414062 697.582031 760.136719 698.992188 758.792969 700.335938 C 757.445312 701.683594 756.035156 702.957031 754.5625 704.167969 C 753.089844 705.375 751.5625 706.507812 749.980469 707.5625 C 748.398438 708.621094 746.765625 709.597656 745.085938 710.496094 C 743.40625 711.394531 741.6875 712.207031 739.929688 712.933594 C 738.167969 713.664062 736.378906 714.304688 734.554688 714.855469 C 732.734375 715.40625 730.890625 715.871094 729.019531 716.242188 C 727.152344 716.613281 725.273438 716.890625 723.375 717.078125 C 721.480469 717.265625 719.582031 717.359375 717.679688 717.359375 L 485.105469 717.359375 C 483.199219 717.359375 481.300781 717.265625 479.40625 717.078125 C 477.511719 716.890625 475.628906 716.613281 473.761719 716.242188 C 471.894531 715.871094 470.050781 715.410156 468.226562 714.855469 C 466.40625 714.304688 464.613281 713.664062 462.855469 712.933594 C 461.09375 712.207031 459.375 711.394531 457.695312 710.496094 C 456.015625 709.597656 454.386719 708.621094 452.800781 707.5625 C 451.21875 706.507812 449.691406 705.375 448.21875 704.167969 C 446.746094 702.957031 445.339844 701.683594 443.992188 700.335938 C 442.644531 698.992188 441.367188 697.582031 440.160156 696.109375 C 438.953125 694.640625 437.820312 693.113281 436.761719 691.53125 C 435.703125 689.945312 434.726562 688.316406 433.828125 686.636719 C 432.929688 684.960938 432.117188 683.242188 431.386719 681.480469 C 430.660156 679.722656 430.019531 677.933594 429.464844 676.113281 C 428.914062 674.289062 428.449219 672.445312 428.078125 670.578125 C 427.707031 668.714844 427.429688 666.832031 427.242188 664.9375 C 427.054688 663.042969 426.960938 661.144531 426.960938 659.242188 C 426.960938 657.339844 427.054688 655.441406 427.242188 653.546875 C 427.429688 651.652344 427.707031 649.769531 428.078125 647.902344 C 428.449219 646.039062 428.914062 644.191406 429.464844 642.371094 C 430.019531 640.550781 430.660156 638.761719 431.386719 637 C 432.117188 635.242188 432.929688 633.523438 433.828125 631.847656 C 434.726562 630.167969 435.703125 628.535156 436.761719 626.953125 C 437.820312 625.371094 438.953125 623.84375 440.160156 622.375 C 441.367188 620.902344 442.644531 619.492188 443.992188 618.148438 C 445.339844 616.800781 446.746094 615.523438 448.21875 614.316406 C 449.691406 613.109375 451.21875 611.976562 452.800781 610.917969 C 454.386719 609.863281 456.015625 608.886719 457.695312 607.988281 C 459.375 607.089844 461.09375 606.277344 462.855469 605.550781 C 464.613281 604.820312 466.40625 604.179688 468.226562 603.628906 C 470.050781 603.074219 471.894531 602.613281 473.761719 602.242188 C 475.628906 601.871094 477.511719 601.59375 479.40625 601.40625 C 481.300781 601.21875 483.199219 601.125 485.105469 601.125 L 717.679688 601.125 C 719.582031 601.125 721.480469 601.21875 723.375 601.40625 C 725.273438 601.59375 727.152344 601.871094 729.019531 602.242188 C 730.890625 602.613281 732.734375 603.074219 734.554688 603.628906 C 736.378906 604.179688 738.167969 604.820312 739.929688 605.550781 C 741.6875 606.277344 743.40625 607.089844 745.085938 607.988281 C 746.765625 608.886719 748.398438 609.863281 749.980469 610.917969 C 751.5625 611.976562 753.089844 613.109375 754.5625 614.316406 C 756.035156 615.523438 757.445312 616.800781 758.792969 618.148438 C 760.136719 619.492188 761.414062 620.902344 762.625 622.375 C 763.832031 623.84375 764.964844 625.371094 766.023438 626.953125 C 767.082031 628.535156 768.058594 630.167969 768.957031 631.847656 C 769.851562 633.523438 770.667969 635.242188 771.394531 637 C 772.125 638.761719 772.765625 640.550781 773.316406 642.371094 C 773.871094 644.191406 774.332031 646.039062 774.703125 647.902344 C 775.074219 649.769531 775.355469 651.652344 775.542969 653.546875 C 775.726562 655.441406 775.820312 657.339844 775.820312 659.242188 Z M 775.820312 659.242188 " fill-opacity="1" fill-rule="nonzero"/></g></svg>